<svg xmlns="http://www.w3.org/2000/svg" xmlns:xlink="http://www.w3.org/1999/xlink" version="1.1" width="256" height="256" viewBox="0 0 256 256" xml:space="preserve">
<g style="stroke: none; stroke-width: 0; stroke-dasharray: none; stroke-linecap: butt; stroke-linejoin: miter; stroke-miterlimit: 10; fill: none; fill-rule: nonzero; opacity: 1;" transform="translate(1.4065934065934016 1.4065934065934016) scale(2.81 2.81)">
	<path d="M 42.5 10.914 L 45 0 l 2.5 10.914 C 48.142 15.06 41.858 15.058 42.5 10.914 L 42.5 10.914 z" style="stroke: none; stroke-width: 1; stroke-dasharray: none; stroke-linecap: butt; stroke-linejoin: miter; stroke-miterlimit: 10; fill: rgb(0,0,0); fill-rule: nonzero; opacity: 1;" transform=" matrix(1 0 0 1 0 0) " stroke-linecap="round"/>
	<path d="M 45 90 l -2.5 -10.914 c -0.316 -1.381 0.547 -2.756 1.927 -3.073 c 1.797 -0.458 3.522 1.291 3.073 3.073 C 47.5 79.086 45 90 45 90 L 45 90 z" style="stroke: none; stroke-width: 1; stroke-dasharray: none; stroke-linecap: butt; stroke-linejoin: miter; stroke-miterlimit: 10; fill: rgb(0,0,0); fill-rule: nonzero; opacity: 1;" transform=" matrix(1 0 0 1 0 0) " stroke-linecap="round"/>
	<path d="M 10.914 47.5 L 0 45 l 10.914 -2.5 C 15.06 41.858 15.058 48.142 10.914 47.5 L 10.914 47.5 z" style="stroke: none; stroke-width: 1; stroke-dasharray: none; stroke-linecap: butt; stroke-linejoin: miter; stroke-miterlimit: 10; fill: rgb(0,0,0); fill-rule: nonzero; opacity: 1;" transform=" matrix(1 0 0 1 0 0) " stroke-linecap="round"/>
	<path d="M 90 45 l -10.914 2.5 c -1.381 0.316 -2.756 -0.547 -3.073 -1.927 c -0.458 -1.797 1.291 -3.522 3.073 -3.073 C 79.086 42.5 90 45 90 45 L 90 45 z" style="stroke: none; stroke-width: 1; stroke-dasharray: none; stroke-linecap: butt; stroke-linejoin: miter; stroke-miterlimit: 10; fill: rgb(0,0,0); fill-rule: nonzero; opacity: 1;" transform=" matrix(1 0 0 1 0 0) " stroke-linecap="round"/>
	<path d="M 19.13 22.665 l -5.95 -9.485 l 9.485 5.95 C 26.054 21.599 21.597 26.052 19.13 22.665 L 19.13 22.665 z" style="stroke: none; stroke-width: 1; stroke-dasharray: none; stroke-linecap: butt; stroke-linejoin: miter; stroke-miterlimit: 10; fill: rgb(0,0,0); fill-rule: nonzero; opacity: 1;" transform=" matrix(1 0 0 1 0 0) " stroke-linecap="round"/>
	<path d="M 76.82 76.82 l -9.485 -5.95 c -1.2 -0.753 -1.563 -2.336 -0.81 -3.536 c 0.947 -1.594 3.403 -1.578 4.345 0 C 70.87 67.335 76.82 76.82 76.82 76.82 L 76.82 76.82 z" style="stroke: none; stroke-width: 1; stroke-dasharray: none; stroke-linecap: butt; stroke-linejoin: miter; stroke-miterlimit: 10; fill: rgb(0,0,0); fill-rule: nonzero; opacity: 1;" transform=" matrix(1 0 0 1 0 0) " stroke-linecap="round"/>
	<path d="M 22.665 70.87 l -9.485 5.95 l 5.95 -9.485 C 21.599 63.946 26.052 68.403 22.665 70.87 L 22.665 70.87 z" style="stroke: none; stroke-width: 1; stroke-dasharray: none; stroke-linecap: butt; stroke-linejoin: miter; stroke-miterlimit: 10; fill: rgb(0,0,0); fill-rule: nonzero; opacity: 1;" transform=" matrix(1 0 0 1 0 0) " stroke-linecap="round"/>
	<path d="M 76.82 13.18 l -5.95 9.485 c -0.753 1.2 -2.336 1.563 -3.536 0.81 c -1.594 -0.947 -1.578 -3.403 0 -4.345 C 67.335 19.13 76.82 13.18 76.82 13.18 L 76.82 13.18 z" style="stroke: none; stroke-width: 1; stroke-dasharray: none; stroke-linecap: butt; stroke-linejoin: miter; stroke-miterlimit: 10; fill: rgb(0,0,0); fill-rule: nonzero; opacity: 1;" transform=" matrix(1 0 0 1 0 0) " stroke-linecap="round"/>
	<path d="M 45 17.32 c -15.287 0 -27.68 12.393 -27.68 27.68 c 0 15.287 12.393 27.68 27.68 27.68 S 72.68 60.287 72.68 45 C 72.68 29.713 60.287 17.32 45 17.32 z M 52.317 42.599 c 0.068 0.123 0.145 0.243 0.229 0.354 c 0.084 0.112 0.177 0.219 0.277 0.319 c 0.099 0.099 0.206 0.192 0.318 0.276 c 0.112 0.084 0.231 0.161 0.354 0.229 c 0.12 0.066 0.245 0.124 0.373 0.173 l 3.495 1.032 l -3.495 1.033 c -0.128 0.049 -0.254 0.107 -0.373 0.173 c -0.123 0.068 -0.242 0.145 -0.354 0.229 c -0.112 0.084 -0.219 0.177 -0.319 0.276 c -0.099 0.099 -0.192 0.206 -0.276 0.318 c -0.084 0.112 -0.161 0.231 -0.229 0.354 c -0.066 0.119 -0.124 0.245 -0.173 0.373 l -1.032 3.495 l -1.033 -3.495 c -0.049 -0.128 -0.107 -0.253 -0.173 -0.373 c -0.068 -0.123 -0.144 -0.242 -0.229 -0.354 c -0.084 -0.112 -0.177 -0.219 -0.276 -0.318 c -0.099 -0.099 -0.206 -0.192 -0.318 -0.276 c -0.112 -0.084 -0.231 -0.161 -0.354 -0.229 c -0.12 -0.066 -0.245 -0.124 -0.373 -0.173 l -3.495 -1.033 l 3.495 -1.032 c 0.128 -0.049 0.253 -0.107 0.373 -0.173 c 0.123 -0.068 0.242 -0.145 0.354 -0.229 c 0.112 -0.084 0.219 -0.177 0.319 -0.276 c 0.099 -0.099 0.192 -0.206 0.276 -0.318 c 0.084 -0.112 0.161 -0.231 0.229 -0.354 c 0.066 -0.12 0.124 -0.246 0.173 -0.373 l 1.033 -3.495 l 1.032 3.495 C 52.193 42.354 52.251 42.479 52.317 42.599 z M 45.492 25.922 c 0.091 -0.035 0.18 -0.076 0.266 -0.123 c 0.087 -0.048 0.172 -0.103 0.252 -0.163 c 0.08 -0.06 0.156 -0.126 0.227 -0.197 c 0.07 -0.07 0.137 -0.147 0.197 -0.227 c 0.06 -0.08 0.115 -0.164 0.163 -0.252 c 0.047 -0.086 0.088 -0.175 0.123 -0.266 l 0.735 -2.487 l 0.735 2.487 c 0.035 0.091 0.076 0.18 0.123 0.266 c 0.048 0.088 0.103 0.173 0.163 0.252 c 0.06 0.08 0.126 0.156 0.197 0.227 c 0.07 0.07 0.147 0.137 0.227 0.197 c 0.08 0.06 0.165 0.115 0.252 0.163 c 0.085 0.047 0.175 0.088 0.266 0.123 l 2.487 0.735 l -2.487 0.735 c -0.091 0.035 -0.181 0.076 -0.266 0.123 c -0.088 0.048 -0.172 0.103 -0.252 0.163 c -0.08 0.06 -0.156 0.126 -0.227 0.197 c -0.07 0.071 -0.137 0.147 -0.197 0.227 c -0.06 0.08 -0.115 0.164 -0.163 0.252 c -0.047 0.085 -0.088 0.174 -0.123 0.266 l -0.735 2.487 l -0.735 -2.487 c -0.035 -0.091 -0.076 -0.18 -0.123 -0.266 c -0.048 -0.087 -0.103 -0.172 -0.163 -0.252 c -0.06 -0.08 -0.126 -0.156 -0.197 -0.227 c -0.071 -0.071 -0.147 -0.137 -0.227 -0.197 c -0.079 -0.06 -0.164 -0.115 -0.252 -0.163 c -0.085 -0.047 -0.174 -0.088 -0.266 -0.123 l -2.487 -0.735 L 45.492 25.922 z M 39.72 66.518 c -7.57 -2.015 -13.563 -8.009 -15.578 -15.579 c -2.744 -10.307 1.612 -19.917 9.239 -25.013 c -1.972 4.821 -2.438 10.418 -0.753 16.219 c 2.215 7.628 8.262 13.674 15.89 15.888 c 5.8 1.684 11.396 1.218 16.216 -0.754 C 59.637 64.906 50.027 69.262 39.72 66.518 z M 65.046 37.816 c -0.074 0.041 -0.146 0.087 -0.214 0.138 s -0.132 0.107 -0.192 0.167 c -0.06 0.06 -0.116 0.125 -0.167 0.192 c -0.051 0.068 -0.097 0.139 -0.138 0.214 c -0.04 0.072 -0.075 0.148 -0.105 0.225 l -0.623 2.11 l -0.623 -2.11 c -0.03 -0.077 -0.065 -0.153 -0.104 -0.225 c -0.041 -0.074 -0.087 -0.146 -0.138 -0.214 c -0.051 -0.068 -0.107 -0.132 -0.167 -0.192 c -0.06 -0.06 -0.125 -0.116 -0.192 -0.167 c -0.067 -0.051 -0.139 -0.097 -0.214 -0.138 c -0.072 -0.04 -0.148 -0.075 -0.225 -0.104 l -2.11 -0.623 l 2.11 -0.623 c 0.077 -0.029 0.153 -0.065 0.225 -0.104 c 0.074 -0.041 0.146 -0.087 0.214 -0.138 c 0.068 -0.051 0.132 -0.107 0.192 -0.167 c 0.06 -0.06 0.116 -0.125 0.167 -0.192 c 0.051 -0.068 0.097 -0.14 0.138 -0.214 c 0.04 -0.073 0.075 -0.148 0.104 -0.225 l 0.623 -2.11 l 0.623 2.11 c 0.03 0.077 0.065 0.153 0.104 0.225 c 0.041 0.074 0.087 0.146 0.138 0.214 c 0.051 0.068 0.107 0.132 0.167 0.192 c 0.06 0.06 0.124 0.116 0.192 0.167 c 0.068 0.051 0.14 0.097 0.214 0.138 c 0.072 0.04 0.148 0.075 0.225 0.104 l 2.11 0.623 l -2.11 0.623 C 65.194 37.741 65.118 37.777 65.046 37.816 z" style="stroke: none; stroke-width: 1; stroke-dasharray: none; stroke-linecap: butt; stroke-linejoin: miter; stroke-miterlimit: 10; fill: rgb(0,0,0); fill-rule: nonzero; opacity: 1;" transform=" matrix(1 0 0 1 0 0) " stroke-linecap="round"/>
</g>
</svg>